<svg width="512" height="512" viewBox="0 0 512 512" fill="none" xmlns="http://www.w3.org/2000/svg">
<path d="M185.255 512C109.054 511.561 46.022 356.009 46.022 276.79C46.022 147.386 143.097 119.056 180.509 119.056C197.369 119.056 215.372 125.677 231.251 131.536C242.355 135.623 253.839 139.842 260.226 139.842C264.049 139.842 273.058 136.253 281.012 133.104C297.975 126.351 319.083 117.958 343.663 117.958C343.707 117.958 343.766 117.958 343.809 117.958C362.163 117.958 417.813 121.986 451.27 172.23L459.107 184.007L447.828 192.518C431.715 204.676 402.315 226.854 402.315 270.785C402.315 322.816 435.611 342.826 451.607 352.45C458.668 356.698 465.977 361.078 465.977 370.658C465.977 376.913 416.055 511.224 343.56 511.224C325.821 511.224 313.282 505.892 302.222 501.19C291.031 496.429 281.377 492.328 265.425 492.328C257.339 492.328 247.114 496.151 236.289 500.209C221.496 505.73 204.752 512 185.753 512H185.255Z" fill="white"/>
<path d="M351.343 0C353.231 68.076 304.546 115.304 255.918 112.342C247.905 58.015 304.54 0 351.343 0Z" fill="white"/>
</svg>
