<svg id="Layer_1" data-name="Layer 1" xmlns="http://www.w3.org/2000/svg" xmlns:xlink="http://www.w3.org/1999/xlink" viewBox="0 0 400 300"><defs><linearGradient id="linear-gradient" x1="87.12" y1="205.48" x2="126.69" y2="173.71" gradientUnits="userSpaceOnUse"><stop offset="0" stop-color="#f15a24" stop-opacity="0"/><stop offset="1" stop-color="#f15a24"/></linearGradient><linearGradient id="linear-gradient-2" x1="164.15" y1="204.53" x2="192.64" y2="169.17" xlink:href="#linear-gradient"/><linearGradient id="linear-gradient-3" x1="272.08" y1="219.82" x2="302.08" y2="172.91" xlink:href="#linear-gradient"/></defs><title>#41-50</title><path d="M205,271.43l145.3-82.81a10.35,10.35,0,0,0,.12-17.91L214.75,91.05A14.6,14.6,0,0,0,200.06,91L50.15,177.55a11.32,11.32,0,0,0,.16,19.7l133.79,74.3A21.3,21.3,0,0,0,205,271.43Z" fill="#fd9d68"/><polygon points="131.85 198.47 108.49 185.3 75.44 187.51 69.98 191.22 56.84 200.88 89.4 218.96 131.85 198.47" fill="url(#linear-gradient)"/><path d="M151.9,228.16l103-54.61-92.07-12.84-60.14,38.48C108.45,202.7,146.22,224.5,151.9,228.16Z" opacity="0.68" fill="url(#linear-gradient-2)"/><ellipse cx="212.7" cy="122.88" rx="60.81" ry="25.15" fill="#51d684"/><path d="M150.81,120s-18,59.19,58.53,63.28,64.17-60.43,64.17-60.43" fill="#51d684"/><ellipse cx="212.7" cy="122.88" rx="60.81" ry="25.15" opacity="0.61"/><path d="M209.34,128.4s-4.21-21.25-13.88-27.76-8.09.59-16.24-5.65-16.63-5.37-20.86-.35-.61,8.24,3.73,10.73,8.4-.81,7.61,6.39-4,9.36,3.64,12,14.15-4.11,15.73,1.58,3,8.63,6.08,8.11S209.34,128.4,209.34,128.4Z" fill="#78dd7a"/><path d="M205.76,133.26c-1.3-5.91-5.27-10.46-9.64-14.52a53.71,53.71,0,0,0-1.38-14.34c-.15-.63-1.11-.36-1,.27a52.57,52.57,0,0,1,1.37,13.18c-1.54-1.38-3.1-2.72-4.6-4L189,112.46a.39.39,0,0,0-.36-.39l-.12,0c-1.34-1.14-2.68-2.27-4.05-3.37a.5.5,0,0,0,.15-.46,17.44,17.44,0,0,0-4.15-8.76c-.42-.49-1.13.22-.71.71a16.42,16.42,0,0,1,3.79,7.78,70.56,70.56,0,0,0-15.58-9.61c-.58-.25-1.09.61-.5.86,7.1,3.05,13.31,7.59,19.18,12.54q-5.26-.86-10.45-2.08c-.63-.15-.89.82-.27,1q6,1.43,12.16,2.36l1.14,1c1.91,1.67,4,3.36,5.92,5.16,0,0,0,.09,0,.14a.47.47,0,0,0,.64.45,50.08,50.08,0,0,1,3.53,3.63,47,47,0,0,0-7.5-2.33c-.63-.14-.9.83-.27,1a46,46,0,0,1,8.25,2.63.52.52,0,0,0,.52-.06,22,22,0,0,1,4.52,9C204.93,134.15,205.9,133.89,205.76,133.26Z" fill="#2f7f2f"/><path d="M275.47,222.84,325,196l-39-16.21-43.56,27.24C248.26,210.59,269.79,219.18,275.47,222.84Z" opacity="0.68" fill="url(#linear-gradient-3)"/><path d="M233,212.71s-4-4.66-1.57-7.88,24-14.73,25.12-14.53,3.22,2.14,2.58,3-23,11.67-21.56,13.12,23.28-11,23.28-11,2.28,1.11,2.15,2.29-22.55,12.09-21.58,13,22.71-11.11,23.36-10.47,2.58,2.48,2.09,3a15.94,15.94,0,0,1-3.44,2.18q-3.75,2.28-7.55,4.48c-2.67,1.55-5.34,3.08-8.06,4.55-2.51,1.35-5.27,3.05-8.23,2.22C237.15,216.07,234.94,214.29,233,212.71Z" fill="#c1c1c1"/><path d="M237.43,213.94S184.11,246.79,183.48,247s-9.88,4-13-.19l64.63-36.53" fill="#c1c1c1"/><path d="M232.87,209.68a4.73,4.73,0,0,0,4,4.16A34.57,34.57,0,0,0,232.87,209.68Z" fill="#c1c1c1"/><path d="M231.31,208.41c-1.31,2.13-26.74,15.81-26.74,15.81s-33.1,14.15-34.08,22.58,65.31-34.09,65.31-34.09h.08A31.17,31.17,0,0,0,231.31,208.41Z" fill="#e0dee1"/><path d="M233,211s-4-4.66-1.57-7.88,24-14.73,25.12-14.53,3.22,2.14,2.58,3-23,11.67-21.56,13.12,23.28-11,23.28-11,2.28,1.11,2.15,2.29-22.55,12.09-21.58,13,22.71-11.11,23.36-10.47,2.58,2.48,2.09,3a15.94,15.94,0,0,1-3.44,2.18q-3.75,2.28-7.55,4.48c-2.67,1.55-5.34,3.08-8.06,4.55-2.51,1.35-5.27,3.05-8.23,2.22C237.15,214.38,234.94,212.6,233,211Z" fill="#e0dee1"/><path d="M236.4,208.76s1.76,3.54,4.88,3S263,200.87,263,200.87s-16.11,13-21.12,13S236.4,208.76,236.4,208.76Z" fill="#fff"/><path d="M270.82,92.42l-8.22,9.21s-3.91,14-4.89,16c-.86,1.71-.2,19.08,0,23.08,2-.92,4-2,6.07-2.93l.25-.15s1.06-4.9,2.08-13.65,6.93-8.54,9.64-18.54S271.2,92.71,270.82,92.42Z" fill="#870e02"/><path d="M236.06,120.75a13.66,13.66,0,0,1,2.94-5.22,22.27,22.27,0,0,0,2.94-3.24,3.06,3.06,0,0,0,0-3.66,2.5,2.5,0,0,0-3.32-.71.52.52,0,0,1-.2.06,71,71,0,0,0-5,18.54,10.15,10.15,0,0,0,2.06,3.5A22.37,22.37,0,0,1,236.06,120.75Z" fill="#b31700"/><path d="M256.48,90.91a19.07,19.07,0,0,0-7.81,3.33c.87-.4,1.76-.74,2.62-1a20.88,20.88,0,0,1,9.38-1.28c4.84.56,9.38,3.54,7.47,8.93C266,107,259.4,109.41,255.33,114a20.73,20.73,0,0,0-3.62,21.36c.23.6-.73.86-1,.27-3.79-9.8-.21-19.78,8-26,2.56-1.93,5.19-3.75,7-6.42a9.2,9.2,0,0,0,1.88-4.77c.06-2.43-1.79-4-3.9-4.83a16.77,16.77,0,0,0-9.7-.23c-3,.74-7.08,2-8.94,4.67a.52.52,0,0,1-.72.13c-.33.39-.66.78-1,1.19,4-1.39,8.61-2.31,12.57-1.52,5.32,1.06,4.34,6.68,1.9,10.11a17.4,17.4,0,0,1-5.61,4.91c-2.7,1.56-5.77,2.84-7.44,5.63-3.29,5.48-2,13,.87,18.49a80,80,0,0,0,10.07,3.91c-2.29-7.46-2.2-21.34,5.61-25.59,2.46-3.75,7.13-6.14,10.29-9.94C276,100.23,276.13,87.41,256.48,90.91Z" fill="#b31700"/><path d="M247.22,114.66c2-1.36,4.18-2.27,6.13-3.62,2.81-1.94,6.16-5.68,5.56-9.39-.88-5.44-11.48-2.61-16.58-.78-.5.73-1,1.48-1.41,2.24,2.37-.86,4.9-1.22,7.17.09a4.86,4.86,0,0,1,1.8,6.91c-2.3,3.89-6.71,5.9-8.71,10.06a19.85,19.85,0,0,0-1.79,7.42,21.47,21.47,0,0,0,.21,6,41.58,41.58,0,0,0,4.64,2.73C241.05,129.29,240.39,119.42,247.22,114.66Z" fill="#b31700"/><path d="M238.49,126.38a18.13,18.13,0,0,1,3-8.75c2.07-2.88,5.42-4.69,7.29-7.7,2.06-3.31-.28-6.45-3.91-6.58a10.91,10.91,0,0,0-4.76,1.11c-.4.75-.79,1.51-1.15,2.28a3.68,3.68,0,0,1,3.84,1.12c1.4,1.68.72,3.93-.44,5.52-1,1.36-2.39,2.38-3.41,3.72a13.26,13.26,0,0,0-2.36,5.41,25.31,25.31,0,0,0,0,8.72,22.22,22.22,0,0,0,1.73,1.47A25.84,25.84,0,0,1,238.49,126.38Z" fill="#b31700"/><path d="M257.78,140.62l.4-4.51s1-9.2,1.57-16.1a9.65,9.65,0,0,1,.53-2.48c-2.32,2.24-3.63,5.67-4.31,8.81a28,28,0,0,0,.88,14.7Z" fill="#b31700"/><path d="M245.1,98.07C247,95.44,251,94.14,254,93.4a16.77,16.77,0,0,1,9.7.23c2.1.78,4,2.4,3.9,4.83a9.2,9.2,0,0,1-1.88,4.77c-1.85,2.68-4.48,4.49-7,6.42-8.18,6.19-11.76,16.17-8,26,.23.59,1.2.34,1-.27A20.73,20.73,0,0,1,255.33,114c4.06-4.57,10.63-7,12.81-13.13,1.92-5.4-2.62-8.38-7.47-8.93a20.88,20.88,0,0,0-9.38,1.28c-.86.31-1.75.65-2.62,1a24.28,24.28,0,0,0-4.29,4A.52.52,0,0,0,245.1,98.07Z" fill="#d36559"/><path d="M244.82,118.52c1.67-2.79,4.74-4.07,7.44-5.63a17.4,17.4,0,0,0,5.61-4.91c2.45-3.43,3.43-9-1.9-10.11-4-.79-8.54.13-12.57,1.52q-.56.72-1.07,1.48c5.1-1.83,15.7-4.66,16.58.78.6,3.71-2.75,7.45-5.56,9.39-2,1.35-4.18,2.26-6.13,3.62-6.82,4.76-6.17,14.63-3,21.64l1.45.72C242.82,131.54,241.54,124,244.82,118.52Z" fill="#d36559"/><path d="M239.4,127.59a19.85,19.85,0,0,1,1.79-7.42c2-4.16,6.4-6.17,8.71-10.06a4.86,4.86,0,0,0-1.8-6.91c-2.27-1.31-4.8-.94-7.17-.09q-.39.67-.76,1.36a10.91,10.91,0,0,1,4.76-1.11c3.63.12,6,3.27,3.91,6.58-1.87,3-5.22,4.82-7.29,7.7a18.13,18.13,0,0,0-3,8.75,25.84,25.84,0,0,0-.08,6.33c.38.29.78.58,1.19.86A21.47,21.47,0,0,1,239.4,127.59Z" fill="#d36559"/><path d="M236.64,122.52a13.26,13.26,0,0,1,2.36-5.41c1-1.35,2.41-2.36,3.41-3.72,1.16-1.59,1.84-3.84.44-5.52a3.68,3.68,0,0,0-3.84-1.12c-.19.41-.38.82-.56,1.24a.52.52,0,0,0,.2-.06,2.5,2.5,0,0,1,3.32.71,3.06,3.06,0,0,1,0,3.66,22.27,22.27,0,0,1-2.94,3.24,13.66,13.66,0,0,0-2.94,5.22,22.37,22.37,0,0,0-.55,9.27,16.46,16.46,0,0,0,1.17,1.22A25.31,25.31,0,0,1,236.64,122.52Z" fill="#d36559"/><path d="M256.53,141.16l.31-.13a28,28,0,0,1-.88-14.7c.68-3.14,2-6.58,4.31-8.81a10.17,10.17,0,0,1,1.1-2.19c-7.81,4.25-7.9,18.13-5.61,25.59Z" fill="#d36559"/><path d="M205.72,122.86c-.78-.17-4.81-28.18,11.39-30.25s15.6,30.25,15.6,30.25S213.46,124.56,205.72,122.86Z" fill="#b31700"/><path d="M208.16,124.94c-.72-.17-4.45-28.18,10.52-30.25s14.41,30.25,14.41,30.25S215.31,126.65,208.16,124.94Z" fill="#d36559"/><path d="M209.32,126.88c-.66-.15-4.11-24.05,9.73-25.82s13.32,25.82,13.32,25.82S215.93,128.34,209.32,126.88Z" fill="#b31700"/><path d="M211.4,128.67c-.61-.15-3.8-24.05,9-25.82s12.3,25.82,12.3,25.82S217.5,130.12,211.4,128.67Z" fill="#d36559"/><path d="M212.55,131.13c-.58-.13-3.61-21.15,8.55-22.7s11.71,22.7,11.71,22.7S218.36,132.41,212.55,131.13Z" fill="#b31700"/><path d="M214.39,132.7c-.54-.13-3.34-21.15,7.9-22.7s10.81,22.7,10.81,22.7S219.75,134,214.39,132.7Z" fill="#d36559"/><path d="M250.83,134c-3.56-2.09-7,.34-7,.34s-4.24-7.27-8.34-7.6-6.54,5.17-6.54,5.17-1.62-6.58-8.2-6.45-8.61,9.9-8.61,9.9-2.08,10.82,6.85,13.5c4,1.19,11.72-.26,19.11-2.25a1.44,1.44,0,0,1,.46-.27,40.83,40.83,0,0,1,5.91-1.57c2.4-.74,4.6-1.47,6.43-2.1A21.3,21.3,0,0,1,255.5,141l.57-.21S254.4,136.08,250.83,134Z" fill="#f6d42d"/><path d="M251.2,138.66a3.71,3.71,0,0,1,2.75,2.79l.93-.27a5.4,5.4,0,0,0-2.66-3.18c-2.27-1.11-3.59,0-5.32,1.33s-4.38,1.82-5.33-.93a18.84,18.84,0,0,1-.39-2,4.36,4.36,0,0,0-7.38-2.69,8,8,0,0,0-2.13,3.1c-1.68,3.58-5.46,3.77-6.69-.42-.64-2.18-1.68-5.89-4.13-6.67-2.19-.7-4.46,1.26-5.7,2.86a15.53,15.53,0,0,0-2.77,8.19c-.06.64.94.64,1,0,.29-3.1,1.15-6.39,3.48-8.6a3.3,3.3,0,0,1,3-1.09c1.71,0,2,.55,2.75,1.94a25.8,25.8,0,0,1,1.68,4.61,4.17,4.17,0,0,0,7.64.91c.74-1.16,1-2.54,2-3.58,2.1-2.23,5.39-1.64,6.23,1.36.48,1.72.38,3.74,2.12,4.77,1.47.87,3.41.35,4.73-.54S249.2,138.35,251.2,138.66Z" fill="#ff6a40"/><path d="M240.52,145c.07.22.15.42.24.61l.92-.24c-1.23-2.21-.93-5.63-4.67-5.13a6.22,6.22,0,0,0-3.9,2.61c-.69.87-1.26,1.86-2,2.67-1.72,1.81-4.55,2.27-5.89-.16-1.47-2.67-.87-7.69-5-8s-5.86,5.48-6.6,8.52c-.15.63.81.89,1,.27.55-2.24,1.46-5.37,3.3-6.94,4.24-3.6,5.23,2.58,5.82,4.74s2,4.63,4.66,4.33c3.64-.41,4.5-4.64,7.18-6.39a3,3,0,0,1,4.18.54C240.19,143,240.27,144.28,240.52,145Z" fill="#ff6a40"/><ellipse cx="307.65" cy="152" rx="26.08" ry="12.89" fill="#51d684"/><ellipse cx="307.65" cy="186.19" rx="26.08" ry="12.89" fill="#51d684"/><path d="M333.73,151.85v35.06s-19.41,18-52.15.29V151.85" fill="#51d684"/><path d="M285.48,164.37s-4.32-6.61-8.39-2.8-.51,17,11.44,18.3v5.34s-15-2-17-15.51,7.62-15.55,12.45-11.84" fill="#51d684"/><ellipse cx="307.65" cy="152" rx="26.08" ry="12.89" opacity="0.61"/><path d="M218.24,147s8.5,11.54,2.17,14.52-19,2.21-25.26-5.78S218.24,147,218.24,147Z" opacity="0.14"/><path d="M190.37,123.87s-10.19-5.06-14.28-10.17-15.19-11.2-17.55-7.13-3.58,6.27-7.67,7.13-8.22,2-5.28,6.82,7.47,6,11.85,5.51,6.2-.74,8.42,2.83,3.41,5.62,7.84,3.58,3-2,8.18-2S195.15,128,195.15,128Z" fill="#51bc51"/><path d="M194.28,127.5a134.86,134.86,0,0,0-14.39-5.15,52.31,52.31,0,0,0-3.36-5.37c-.37-.52-1.24,0-.86.5a52.31,52.31,0,0,1,2.83,4.45q-5-1.41-10-2.44a.49.49,0,0,0-.11-.29c-2.63-3.16-5.51-6.24-7.87-9.6-.37-.52-1.24,0-.86.5,2.25,3.19,4.93,6.12,7.45,9.11A134.53,134.53,0,0,0,148.71,117c-.64,0-.64,1,0,1a133.61,133.61,0,0,1,16.49,1.9c-2.89.6-5.79,1.12-8.72,1.52-.63.09-.36,1.05.27,1q5.41-.74,10.73-1.93a.49.49,0,0,0,.2-.09q5,1,9.93,2.37l-10.36,2.71a.5.5,0,0,0,.27,1l12-3.13a132.46,132.46,0,0,1,14.31,5.11C194.36,128.61,194.87,127.75,194.28,127.5Z" fill="#2f7f2f"/><path d="M194.37,129s-9.39-5.17-14.71-1.88-5.86,8.13-10.19,5.89-12-2.65-13.84,0-3,9.74-1.45,13.21,16,5.28,18.73,3.68,4-8.15,7.4-7.79,11.56-.48,15.37-2,7.79-13,7.79-13Z" fill="#78dd7a"/><path d="M193.91,130.93c-3.52.82-6.62,2.54-9.89,4l-.38.16.06-.15a.5.5,0,0,0-.48-.63,49.14,49.14,0,0,1-10.46-.17c-.64-.08-.63.92,0,1a49.11,49.11,0,0,0,9.72.21l-.09.24a30.5,30.5,0,0,1-10,1.54l-.31,0-.14,0q-6.22-.63-12.41-1.5c-.63-.09-.9.88-.27,1,3.08.43,6.16.81,9.25,1.15a8.42,8.42,0,0,0-3.53,2.18c-.35.36-.69.73-1,1.11h0l-7.23.57c-.64.05-.64,1.05,0,1l6.29-.5c-2.14,2.42-4.25,4.44-8.23,3.14-.61-.2-.88.77-.27,1a7.65,7.65,0,0,0,7.93-1.77c.25-.25.49-.51.72-.78l-.54,3.92c-.09.63.88.9,1,.27l.78-5.67a18,18,0,0,1,1.31-1.55,8.37,8.37,0,0,1,5.64-2.43l-1.26,7.62c-.1.63.86.9,1,.27l1.31-7.95h0a31.14,31.14,0,0,0,9.48-1.25,38.86,38.86,0,0,1-2.14,4.29.5.5,0,0,0,.86.5,39.81,39.81,0,0,0,2.55-5.28c3.69-1.54,7.11-3.61,11-4.53C194.8,131.75,194.54,130.79,193.91,130.93Z" fill="#2f7f2f"/><path d="M194.83,128s-7.66,9.74-2.41,13.55,8.53,1.43,5.63,6-6.75,6-1.4,9,26.83,3.79,27.19-1.62-8.85-3.15-5.6-7.89,3-11.38-.65-11.67-7.09.55-6-3.46-7.5-9.46-7.5-9.46Z" fill="#51bc51"/><path d="M214.78,156.22c-2.71-2.15-6.59-4.37-8.25-7.52a6.12,6.12,0,0,1-.42-4.09c2.1,1.29,4.24,2.49,6.46,3.58.58.28,1.08-.58.5-.86-2.32-1.14-4.56-2.41-6.76-3.77.35-1.68.75-3.37.14-5.05a15.54,15.54,0,0,0-5.09-6.54l6.48.85c.64.08.63-.92,0-1l-8.13-1.07a31.32,31.32,0,0,0-7.24-3.59c-.61-.21-.87.76-.27,1a25.43,25.43,0,0,1,9.35,5.56.49.49,0,0,0-.11.28q-.33,4.44-1.07,8.82c-.11.63.86.9,1,.27.48-2.83.83-5.68,1.05-8.55a14.82,14.82,0,0,1,2.6,3.26c1,1.86.73,3.59.36,5.45a.51.51,0,0,0-.16.81l-.06.31a7.42,7.42,0,0,0,.81,5.06.48.48,0,0,0-.06.12,36.06,36.06,0,0,1-2.08,6c-.26.58.6,1.09.86.5a37.71,37.71,0,0,0,2-5.51c1.87,2.53,5,4.47,7.43,6.43C214.57,157.32,215.28,156.62,214.78,156.22Z" fill="#2f7f2f"/><path d="M194,134.72s-16.57,6.56-18.37,12.15,3.85.25,5.35,6.17,8.42,9.8,12.54,5.42,7.08-27.12,7.08-27.12Z" fill="#3caf3c"/><path d="M199.73,129.62a63.77,63.77,0,0,0-7.22,10.6.43.43,0,0,0-.55,0c-2,1.29-4.21,1.55-6.43,2.19a22.2,22.2,0,0,0-5.17,2.3.5.5,0,0,0,.5.86,22.58,22.58,0,0,1,6.36-2.57,18.3,18.3,0,0,0,4.63-1.56,63.37,63.37,0,0,0-2.86,6.38h0l-6,2.33c-.59.23-.34,1.2.27,1l5.38-2.08c-.69,1.92-1.32,3.88-1.83,5.87a.5.5,0,0,0,1,.27c.44-1.72,1-3.41,1.55-5.07l1.64,3.28c.29.58,1.15.07.86-.5l-2-4.1a63.4,63.4,0,0,1,2.62-6l1.86,5.24c.21.6,1.18.34,1-.27l-2.2-6.2a62.17,62.17,0,0,1,7.49-11.16C200.85,129.84,200.14,129.13,199.73,129.62Z" fill="#2f7f2f"/><path d="M197.38,107.94c-.66-2.41-3.81-2.29-5.57-1.31a1.15,1.15,0,0,0-.55.63c-1.41,1.11-2.37,2.83-1.65,4.65.87,2.19,3.49,2.44,5.37,1.41A4.88,4.88,0,0,0,197.38,107.94Zm-2.39,1.3a2.37,2.37,0,0,1-1.28,1.91c-.58.29-1.65.53-1.82-.33s.61-1.42,1.19-1.78a1.26,1.26,0,0,0,.43-.43,1.92,1.92,0,0,1,1-.13C195,108.55,195,108.72,195,109.24Z" fill="#313115"/><path d="M211.15,137.11c-.66-2.41-3.81-2.29-5.57-1.31a1.15,1.15,0,0,0-.55.63c-1.41,1.11-2.37,2.83-1.65,4.65.87,2.19,3.49,2.44,5.37,1.41A4.88,4.88,0,0,0,211.15,137.11Zm-2.39,1.3a2.37,2.37,0,0,1-1.28,1.91c-.58.29-1.65.53-1.82-.33s.61-1.42,1.19-1.78a1.26,1.26,0,0,0,.43-.43,1.92,1.92,0,0,1,1-.13C208.8,137.71,208.81,137.88,208.76,138.41Z" fill="#313115"/><path d="M184.05,129.35c-.66-2.41-3.81-2.29-5.57-1.31a1.15,1.15,0,0,0-.55.63c-1.41,1.11-2.37,2.83-1.65,4.65.87,2.19,3.49,2.44,5.37,1.41A4.88,4.88,0,0,0,184.05,129.35Zm-2.39,1.3a2.37,2.37,0,0,1-1.28,1.91c-.58.29-1.65.53-1.82-.33s.61-1.42,1.19-1.78a1.26,1.26,0,0,0,.43-.43,1.92,1.92,0,0,1,1-.13C181.7,130,181.71,130.13,181.67,130.65Z" fill="#313115"/><path d="M214.54,126.41c-.66-2.41-3.81-2.29-5.57-1.31a1.15,1.15,0,0,0-.55.63c-1.41,1.11-2.37,2.83-1.65,4.65.87,2.19,3.49,2.44,5.37,1.41A4.88,4.88,0,0,0,214.54,126.41Zm-2.39,1.3a2.37,2.37,0,0,1-1.28,1.91c-.58.29-1.65.53-1.82-.33s.61-1.42,1.19-1.78a1.26,1.26,0,0,0,.43-.43,1.92,1.92,0,0,1,1-.13C212.18,127,212.2,127.19,212.15,127.71Z" fill="#313115"/><circle cx="209.99" cy="118.32" r="6.77" fill="#f94b4b"/><path d="M210,111.55a6.41,6.41,0,0,0-.65.06,9.78,9.78,0,0,1,3.34,8.62,7.76,7.76,0,0,1-3,4.84l.28,0a6.77,6.77,0,0,0,0-13.54Z" fill="#d32929"/><circle cx="227.82" cy="125.09" r="6.77" fill="#f94b4b"/><path d="M227.82,118.32a6.41,6.41,0,0,0-.65.06,9.78,9.78,0,0,1,3.34,8.62,7.76,7.76,0,0,1-3,4.84l.28,0a6.77,6.77,0,0,0,0-13.54Z" fill="#d32929"/><circle cx="197.53" cy="129.16" r="6.77" fill="#f94b4b"/><path d="M197.53,122.39a6.41,6.41,0,0,0-.65.06,9.78,9.78,0,0,1,3.34,8.62,7.76,7.76,0,0,1-3,4.84l.28,0a6.77,6.77,0,1,0,0-13.54Z" fill="#d32929"/><path d="M273.51,122.88c0,13.89-27.22,25.15-60.81,25.15s-60.81-11.26-60.81-25.15a10.79,10.79,0,0,1,.39-2.82l-1.48,0s-18,59.19,58.53,63.28S273.51,122.88,273.51,122.88Z" fill="#51d684"/><path d="M190.34,173.33c-10.55-8.08-16.55-19.86-18.9-32.53-4.71-.81-9.5-3.78-13-6.59a21.73,21.73,0,0,1-7.73-13.89c-1.23,4.46-14.74,59.06,58.62,63a114.08,114.08,0,0,0,15.35-.16C212.47,182.92,200.37,181,190.34,173.33Z" opacity="0.14"/><path d="M112.9,78.14l9,22s7.93,14,3.55,15.36-17.78-10.73-17.78-10.73Z" fill="#f94b4b"/><path d="M133.87,193.56a24.73,24.73,0,0,0-4.92-3c-1.82-.79-7-6.88-7.42-7.5s-1.28-3.51-2.21-3.71-3,.91-3,.91-2.94-3-5.48-2.06c0,0-2.36,1.26-2.31,8a1.58,1.58,0,0,0-.22.17,27.41,27.41,0,0,0-.25,3.18,9,9,0,0,0,3.9,3.58c2.06,1.08,6.53,4.87,9.43,5.63s8.6.46,10.52-.27a3.44,3.44,0,0,0,2.31-2.8A3,3,0,0,0,133.87,193.56Z" fill="#722f0e"/><path d="M116.88,180s-3.46-2.86-6.09-1.81-2.3,7.1-2.3,7.1,0,3.45,4.19,5.47,3.48,3.8,8.94,5.49,11.26.34,12.32-1.31-2.35-3.09-2.59-3.3-5.14-3.22-6.25-4.72-3.08-4.1-3.79-5.38-1-2.43-2.29-2.32A4,4,0,0,0,116.88,180Z" fill="#964c23"/><path d="M127,188.5h0a13.11,13.11,0,0,0-2.18-.26q.22-.65.42-1.31a7.68,7.68,0,0,1-.52-.6l0,0a8.88,8.88,0,0,0-1.61-.15l.46-.85a.36.36,0,0,0,0-.25.3.3,0,0,0-.22-.27.39.39,0,0,0-.2,0c-.62-.12-1.24-.22-1.86-.3q.29-.48.62-.93c.29-.39-.36-.76-.65-.38a12.55,12.55,0,0,0-.79,1.22,10.48,10.48,0,0,0-3.33.2c-.47.11-.27.84.2.72a9.35,9.35,0,0,1,2.75-.21,12.8,12.8,0,0,0-.74,1.89c-.37.22,0,.81.42.62a7.88,7.88,0,0,1,2-.6l-.48,1a4.8,4.8,0,0,0-.23.5.54.54,0,0,1-.07.13h0a.38.38,0,0,0,.25.71,12.35,12.35,0,0,1,2.56-.4q-.32.91-.65,1.8a.38.38,0,0,0,.55.42,26.52,26.52,0,0,1,3.42-1.94l.11,0a.37.37,0,0,0,.46-.3C127.43,188.85,127.23,188.68,127,188.5Zm-6.77-1.82a11.86,11.86,0,0,1,.64-1.46c.57.06,1.14.16,1.72.26l-.42.79A8.8,8.8,0,0,0,120.25,186.68Zm1.73,1.79c.11-.28.21-.57.31-.77l.37-.72a8.08,8.08,0,0,1,1.75.12q-.18.58-.37,1.15A13,13,0,0,0,122,188.46Zm2.24,1.52.35-1a12,12,0,0,1,1.27.09C125.29,189.36,124.75,189.66,124.22,190Z" fill="#ffc019"/><path d="M108.91,116.91c1.89,1.25,6.71,22.66,9.55,33.87S121.11,180,121.11,180s-7.21,3.39-13,1.8l-5.93-30.85-9-30.07S100.07,111.08,108.91,116.91Z" fill="#42210b"/><path d="M94.68,199.89A24.73,24.73,0,0,0,90.4,196c-1.64-1.1-5.66-8-5.93-8.72s-.62-3.69-1.5-4.05-3.16.34-3.16.34-2.34-3.51-5-3c0,0-2.55.8-3.73,7.44a1.58,1.58,0,0,0-.25.12,27.41,27.41,0,0,0-.83,3.08,9,9,0,0,0,3.18,4.23c1.83,1.44,5.53,6,8.25,7.26s8.37,2,10.39,1.65A3.44,3.44,0,0,0,94.59,202,3,3,0,0,0,94.68,199.89Z" fill="#722f0e"/><path d="M80.45,183.47s-2.88-3.44-5.66-2.89-3.55,6.56-3.55,6.56-.6,3.4,3.12,6.14,2.73,4.37,7.79,7,11,2.39,12.35,1-1.75-3.47-1.95-3.72-4.46-4.11-5.28-5.78-2.29-4.59-2.75-6-.5-2.56-1.83-2.7A4,4,0,0,0,80.45,183.47Z" fill="#964c23"/><path d="M88.87,193.67h0a13.11,13.11,0,0,0-2.09-.66l.65-1.21a7.68,7.68,0,0,1-.41-.69l-.06,0a8.88,8.88,0,0,0-1.56-.44L86,190a.36.36,0,0,0,.09-.23.3.3,0,0,0-.16-.31.39.39,0,0,0-.19-.08c-.59-.23-1.18-.45-1.78-.64q.37-.41.78-.8c.35-.33-.22-.82-.57-.49a12.55,12.55,0,0,0-1,1.06,10.48,10.48,0,0,0-3.31-.41c-.48,0-.42.77.06.75a9.35,9.35,0,0,1,2.74.3,12.8,12.8,0,0,0-1.07,1.73c-.4.15-.15.8.3.69A7.88,7.88,0,0,1,84,191.3l-.66.88a4.8,4.8,0,0,0-.32.45.54.54,0,0,1-.09.12h0a.38.38,0,0,0,.11.74,12.35,12.35,0,0,1,2.59.07q-.48.83-1,1.66a.38.38,0,0,0,.46.52,26.52,26.52,0,0,1,3.72-1.28l.1,0a.37.37,0,0,0,.5-.21C89.21,194.09,89,193.88,88.87,193.67Zm-6.32-3a11.86,11.86,0,0,1,.89-1.32c.55.17,1.1.36,1.64.57l-.56.69A8.8,8.8,0,0,0,82.55,190.64Zm1.37,2.07c.16-.26.31-.52.45-.7l.49-.64a8.08,8.08,0,0,1,1.7.43L86,192.87A13,13,0,0,0,83.92,192.71Zm1.92,1.91.53-.92a12,12,0,0,1,1.24.32C87,194.2,86.42,194.4,85.84,194.62Z" fill="#ffc019"/><path d="M86.25,116.91s-5.37,34.31-7.51,40.89S71.69,183,71.69,183s5.41,4,11.62,3.59c0,0,15.17-28.12,16.09-37.09s4.84-29.66,4.84-29.66" fill="#42210b"/><path d="M105.47,67.93a.4.4,0,0,0-.08.79A.4.4,0,0,0,105.47,67.93Z" fill="#1c5028"/><path d="M112.9,78.14c-.82-2.4-5.14-4.39-10.18-3.95s-14,7.1-17.35,10.82c-1.82,2.05-2.57,7.67-2.88,12.3,0,0,0,0,0,.06-.39,8.14.47,15.57,3.66,22.89,5.64.38,18.85,1.4,22.42-1.12,4.22-3,3.47-19.57,3.79-22.67S113.72,80.54,112.9,78.14Z" fill="#f94b4b"/><path d="M96.23,65.62h-.84a.5.5,0,0,0,0,1h.84A.5.5,0,0,0,96.23,65.62Z" fill="#1c5028"/><path d="M103.38,69.9a7.66,7.66,0,0,1-7.84,1.56c-.61-.21-.87.75-.27,1a8.67,8.67,0,0,0,8.81-1.82C104.56,70.18,103.85,69.47,103.38,69.9Z" fill="#1c5028"/><path d="M106.95,63.45s-.91,12.35-4,12.94-6.56-1-7.64-2.57S91.88,64.46,93,63,105.21,61.19,106.95,63.45Z" fill="#ffc197"/><path d="M94.57,72.05l-.47,6.09s1.88,1.53,7.32-.26l.77-3.53" fill="#ffc197"/><path d="M109,59.09a5,5,0,0,0-2.18-.34,4.87,4.87,0,0,0-1.69-2.7,5.1,5.1,0,0,0-5.32-.43,3.85,3.85,0,0,0-.82.58A4.55,4.55,0,0,0,95.45,55a3.84,3.84,0,0,0-3.27,2.54A3.23,3.23,0,0,0,92,58.74a3.66,3.66,0,0,0-3.28,2.57,3.63,3.63,0,0,0,.45,3.19,3.2,3.2,0,0,0-.71,3.38,3.55,3.55,0,0,0,2.85,2.25,3.39,3.39,0,0,0-.1,1.83c.65,1.47,2.42,2.08,4.06,2.45.07-.78.15-1.55.19-2.33a.83.83,0,0,1,.05-.21,6.87,6.87,0,0,1-1.39-1.71c-.52-.85-.89-2.06,0-2.83a1.8,1.8,0,0,1,2.75.62,9.39,9.39,0,0,1,.61-1.15h0c.79-2,2.84-2.19,4.78-2.2,2.94,1.55,7.23,2.67,8.43-1.07A3.49,3.49,0,0,0,109,59.09Z" fill="#42210b"/><path d="M97.48,66.79s-.48,3.64.3,4.31,2.9.94,4.41.84,3,.05,3.47,0c0,0-1.06,3.79-2.29,4.83s-4.52-.08-5.31-.58-2-4-2-4l.14-5.34Z" fill="#42210b"/><path d="M138.75,115.22s-62.93-13.71-63.54-14S65,97.12,65.73,91.8l73.92,19.05" fill="#c1c1c1"/><path d="M181,119.93c.09-6.37-9.79-6.17-9.88.18,0-.86-5.09-.37-6.1-.52a26.74,26.74,0,0,1-7.34-2.42,39.32,39.32,0,0,1-12-9.07c-4.35-4.65-11.19,2.48-6.86,7.12,6.72,7.19,15.83,13.06,25.78,14.22C171.34,130.24,180.83,128.34,181,119.93Z" fill="#c1c1c1"/><path d="M107.08,99.4S72.47,86.26,65.73,91.8s72.68,21.35,72.68,21.35,7.36,9.2,24.89,11.93c20.1,3.13,22.23-5.67,10.05-14.94s-24.83-7.49-35.12-3.4C136.21,107.56,107.08,99.4,107.08,99.4Z" fill="#e0dee1"/><path d="M145.73,110.29a17.24,17.24,0,0,1,17.17-2.6c9.82,3.92,12.4,10.34,12.4,10.34S163.23,105.68,145.73,110.29Z" fill="#fff"/><path d="M102,111.15c2.71-.23,5.42-.46,8.14-.51a48.76,48.76,0,0,0,5.87,0c.7-.5,1.93-1.58,1.27-2-2.08-1.19-5.66-2-7.74-3.14a1,1,0,0,0-.28-.09,1.11,1.11,0,0,0-.71-.21l-.83-.42a23,23,0,0,0,.37-4.59.93.93,0,0,0-.67-.91.86.86,0,0,0-1.27.37l-2.77,5.64-.08.07c-2,1.29-6.35-.67-8.38.62,1.08,2-.06,4.24,1.16,6.22.85-.45,2.72-.24,4.64,0A1.38,1.38,0,0,1,102,111.15Z" fill="#ffc197"/><path d="M102.19,103.25s-11.7-3.53-11.61-3.4,6.47-6.88,7.56-9.67c.74-1.9-1-7.15-2.24-10.29-1.32-.42-1-1.35-2.37-1.61-1.9,1-5.38,2.58-7,4-5.29,4.52-10.17,12.88-11,19.8-1,8.59,5.35,11.15,13.59,12.06s15.1,1.18,15.1,1.18Z" fill="#f94b4b"/><path d="M131.29,115s-1.89-5.37-3.2-6.05-1.6,0-1.6,0-1.31-2.39-2.47-1.82,0,2.45,0,2.45-2.07-1.77-2.76-.63,1.36,4,1.36,4S126.67,116.62,131.29,115Z" fill="#ffc197"/><path d="M131.29,115s3.45-2.3,2.31-3.77-3.35,2.16-3.35,2.16" fill="#ffc197"/><path d="M102.74,105.14c-.48-2.09-1.33-2.42-3.37-2.8-1.57-.3-7.6-1.19-7.29-3,.21-1.24,2.24-3.16,3-4.08a47.33,47.33,0,0,1,3.23-3.5.5.5,0,0,0-.71-.71,47.35,47.35,0,0,0-5.9,7.06c-.86,1.27-1.56,2.12-.14,3,2.46,1.6,5.79,1.25,8.39,2.34,2.35,1,2.07,3.48,2.41,5.61l.89,5.48c.1.63,1.07.36,1-.27C103.73,111.25,103.43,108.12,102.74,105.14Z" fill="#42210b"/><path d="M83.84,113.48A42.91,42.91,0,0,0,86,119.83c.38.43.64.68.64.68l16.65-6Z" fill="#991a1a"/><path d="M111.51,87.53c-.08-.63-1.08-.64-1,0L112,99.74c.08.63,1.08.64,1,0Z" fill="#42210b"/></svg>