<svg width="22" height="74" viewBox="0 0 22 74" fill="none" xmlns="http://www.w3.org/2000/svg">
<path d="M21.9455 36.2844L21.4038 29.7859C21.6007 29.7221 21.7842 29.6229 21.9455 29.4931L21.8847 29.2765C21.9056 29.2613 21.9265 29.248 21.9455 29.2328L21.0312 25.9674C21.0312 25.9674 20.5542 21.9892 20.5313 19.9935C20.5313 19.5696 20.5675 19.2712 20.6397 19.1743C20.7556 19.0184 20.7917 18.604 20.7841 18.0795C20.7841 17.7696 20.7841 17.4104 20.748 17.0436C20.8868 16.1065 20.9742 14.2419 19.6893 13.3144C20.6544 11.7669 21.157 9.97576 21.1377 8.1521C21.1377 3.64934 18.2695 0 14.7323 0C11.1951 0 8.32696 3.64934 8.32696 8.1521C8.3201 9.54697 8.60902 10.9274 9.17467 12.2025C8.33646 12.3108 6.77599 12.6492 6.39965 13.6869C5.87696 15.1239 0 23.2227 0 23.2227V26.7504C0.759725 26.8983 1.53639 26.9392 2.30745 26.8721L7.43934 31.7132C7.43934 31.7132 7.70164 31.6752 8.10268 31.5934C7.82162 33.1619 7.67725 34.7518 7.67122 36.3452C7.65348 37.4208 7.75161 38.4952 7.96392 39.5498C7.96392 39.5498 9.83992 44.2673 9.90454 47.0556C9.90374 47.3408 9.868 47.6249 9.7981 47.9014L9.85322 47.9128C9.83801 48.0003 9.82091 48.0839 9.7981 48.1637C9.7981 48.1637 10.1897 48.2416 10.8226 48.3272L11.235 51.2999C11.235 51.2999 11.4954 56.9164 12.2804 57.6995L12.8354 59.6953L12.7271 60.1647C12.7271 60.1647 11.3035 64.5573 10.8853 65.1959C10.6325 65.4772 10.469 66.5473 10.8036 67.1992C10.8704 67.3498 10.9786 67.4782 11.1155 67.5697C11.2524 67.6613 11.4125 67.712 11.5772 67.7162C12.8145 67.7827 13.3961 67.7314 14.259 65.5437L14.3788 65.2377L14.586 65.9828L14.5061 66.0607C14.5061 66.0607 14.9642 70.5673 14.6373 71.4169C14.4282 71.9624 15.0288 73.8992 16.2054 73.5077C17.3819 73.1161 17.8875 72.85 17.8875 70.4969C17.8875 68.1439 17.169 65.4677 16.7775 64.8157C16.7513 64.7717 16.713 64.7361 16.6672 64.7131C16.3194 62.8371 15.7929 59.8606 15.7663 58.8209L17.7753 51.4082C17.9357 50.8155 18.0532 50.2121 18.127 49.6026L18.3398 47.8482C18.7328 47.6934 19.1065 47.4937 19.4537 47.2533C19.4537 47.2533 19.4537 47.1602 19.4537 46.9986C19.4537 46.9986 19.4385 46.6812 19.4347 46.168C19.4347 44.7729 19.5544 42.3229 20.1949 40.521C20.328 41.2262 20.5751 41.7318 21.0217 41.6424C22.337 41.3706 21.9455 36.2844 21.9455 36.2844ZM20.3356 29.9341H20.442L20.4192 30.4264C20.3913 30.2553 20.3628 30.0887 20.3337 29.9265L20.3356 29.9341ZM8.93138 27.8871C8.7128 28.8963 7.45264 29.0997 7.45264 29.0997L4.67572 26.0016C4.83206 25.8734 4.97473 25.7295 5.10147 25.572C5.10147 25.572 5.02734 25.5568 4.9114 25.5226C4.97793 25.4561 5.04065 25.3857 5.10147 25.3097C5.10147 25.3097 3.67215 25.0379 3.56571 23.9526C3.59993 23.5725 3.77858 23.122 4.18723 22.567L7.58378 18.7789C7.58378 18.7789 9.63464 20.2482 9.67455 24.1104C9.66693 24.6868 9.62057 25.2622 9.53581 25.8324C9.53581 25.8324 9.2621 26.6269 8.92568 27.8852L8.93138 27.8871Z" fill="url(#paint0_linear)"/>
<path d="M21.0787 28.6113L21.7193 36.2845C21.7193 36.2845 22.0994 41.2738 20.8241 41.5285C19.5487 41.7832 19.9288 37.0505 19.9288 37.0505L20.309 28.6075L21.0787 28.6113Z" fill="#FFB296"/>
<path opacity="0.1" d="M21.7193 29.6318L20.8241 26.4329C20.8241 26.4329 20.0638 20.0371 20.4439 19.5258C20.8241 19.0145 20.3166 15.5609 20.3166 15.5609L18.7181 17.7353L18.2676 22.2191L19.5449 30.0119C19.5449 30.0119 20.9514 30.2742 21.7193 29.6318Z" fill="black"/>
<path d="M14.6563 16.7186C18.1204 16.7186 20.9286 13.1445 20.9286 8.73562C20.9286 4.32677 18.1204 0.752686 14.6563 0.752686C11.1922 0.752686 8.38397 4.32677 8.38397 8.73562C8.38397 13.1445 11.1922 16.7186 14.6563 16.7186Z" fill="#632652"/>
<path d="M21.7193 29.3792L20.8241 26.1803C20.8241 26.1803 20.0638 19.7845 20.4439 19.2732C20.8241 18.7619 20.3166 15.3083 20.3166 15.3083L18.7181 17.4827L18.2676 21.9589L19.5468 29.7613C19.5468 29.7613 20.9514 30.0122 21.7193 29.3792Z" fill="url(#paint1_linear)"/>
<path d="M12.6872 59.68C12.6872 59.68 11.2635 64.1808 10.8834 64.6066C10.5032 65.0323 10.3493 67.0091 11.56 67.0775C12.7708 67.1459 13.341 67.0927 14.1868 64.9506C15.0326 62.8085 15.8974 60.2616 15.7758 59.526C15.6541 58.7905 12.6872 59.68 12.6872 59.68Z" fill="url(#paint2_linear)"/>
<path opacity="0.05" d="M12.6872 59.68C12.6872 59.68 11.294 63.9813 10.8835 64.6066C10.5698 65.0856 10.3494 67.0091 11.5601 67.0775C12.7708 67.1459 13.3411 67.0927 14.1869 64.9506C15.0327 62.8085 15.8975 60.2616 15.7758 59.526C15.6542 58.7905 12.6872 59.68 12.6872 59.68Z" fill="black"/>
<path d="M17.7544 5.20227H10.5907V13.3886H17.7544V5.20227Z" fill="#632652"/>
<path opacity="0.1" d="M17.7544 5.20227H10.5907V13.3886H17.7544V5.20227Z" fill="black"/>
<path d="M12.3755 8.01514C12.3755 8.01514 13.1358 11.214 12.3755 11.98C12.3755 11.98 10.8397 12.8752 10.4558 12.6205C10.0718 12.3658 8.53607 13.1318 8.53607 13.1318L10.9671 18.5051L16.0838 18.8852L18.7694 18.125V15.1865L18.6421 13.396C18.6421 13.396 15.5725 13.396 15.6998 12.2442C15.8272 11.0924 16.0799 8.02274 16.0799 8.02274L12.3755 8.01514Z" fill="#FFB296"/>
<path d="M18.3931 46.0083L17.9902 49.3326C17.918 49.9293 17.8031 50.5201 17.6461 51.1003L14.5556 62.5045L12.5085 60.465L14.8103 50.4863L15.4508 44.7291L18.3931 46.0083Z" fill="#FFB296"/>
<path opacity="0.05" d="M18.3931 46.0083L17.9902 49.3326C17.918 49.9293 17.8031 50.5201 17.6461 51.1003L14.5556 62.5045L12.5085 60.465L14.8103 50.4863L15.4508 44.7291L18.3931 46.0083Z" fill="black"/>
<path d="M10.5907 46.3921L11.235 50.9975C11.235 50.9975 11.4916 56.4982 12.2576 57.2698L14.816 66.4806L16.863 65.7204C16.863 65.7204 15.4565 58.5566 15.7112 58.0453C15.9659 57.534 15.4546 53.1833 15.4546 53.1833V50.2297C15.4546 50.2297 15.4546 47.2874 15.3272 46.3921C15.1999 45.4969 10.5907 46.3921 10.5907 46.3921Z" fill="#FFB296"/>
<path d="M14.4282 65.4525C14.4282 65.4525 14.8767 69.866 14.5555 70.6966C14.3502 71.2307 14.9356 73.1276 16.0913 72.7436C17.2469 72.3597 17.7544 72.1031 17.7544 69.8013C17.7544 67.4996 17.0511 64.8766 16.6672 64.2361C16.2832 63.5956 14.4282 65.4525 14.4282 65.4525Z" fill="url(#paint3_linear)"/>
<path opacity="0.1" d="M11.7083 16.9961C11.1875 17.0189 10.2942 16.4734 9.74295 12.9115C9.74295 12.9115 7.00784 13.0065 6.49655 14.4131C5.98526 15.8196 0.224243 23.7512 0.224243 23.7512V26.9501C0.224243 26.9501 3.67781 27.7103 5.21358 25.7982C5.21358 25.7982 2.52789 25.287 4.31835 22.856L7.64457 19.1458C7.64457 19.1458 10.3303 21.0655 9.56428 26.3095C9.56428 26.3095 6.87859 34.1119 8.02851 39.4852C8.02851 39.4852 10.4595 45.6263 9.81897 47.9281C9.81897 47.9281 16.2148 49.2073 19.2844 47.0329C19.2844 47.0329 19.0279 41.9162 20.4363 39.4852C21.8447 37.0542 19.2844 26.0529 19.2844 26.0529C19.2844 26.0529 17.7145 22.9548 18.7389 21.803C19.7634 20.6511 18.929 18.0016 18.929 18.0016C18.929 18.0016 21.4589 14.4112 18.6458 13.6452C18.6458 13.6452 19.026 17.7393 17.2393 17.2261L14.0404 16.9866C13.2635 16.9442 12.4848 16.9474 11.7083 16.9961V16.9961Z" fill="black"/>
<path d="M11.7083 16.7395C11.1875 16.7623 10.2942 16.2168 9.74295 12.6549C9.74295 12.6549 7.00784 12.7499 6.49655 14.1565C5.98526 15.563 0.224243 23.4946 0.224243 23.4946V26.6935C0.224243 26.6935 3.67781 27.4538 5.21358 25.5417C5.21358 25.5417 2.52789 25.0304 4.31835 22.5994L7.64457 18.8892C7.64457 18.8892 10.3303 20.8089 9.56428 26.0529C9.56428 26.0529 6.87859 33.8553 8.02851 39.2286C8.02851 39.2286 10.4595 45.3697 9.81897 47.6715C9.81897 47.6715 16.2148 48.9507 19.2844 46.7763C19.2844 46.7763 19.0279 41.6596 20.4363 39.2286C21.8447 36.7976 19.2844 25.7963 19.2844 25.7963C19.2844 25.7963 18.1326 22.8541 19.1571 21.7022C20.1816 20.5504 19.2844 17.7374 19.2844 17.7374L20.4363 17.994C20.4363 17.994 21.4589 14.1565 18.6458 13.3886C18.6458 13.3886 19.026 17.4827 17.2393 16.9695L14.0404 16.73C13.2635 16.6876 12.4848 16.6908 11.7083 16.7395Z" fill="url(#paint4_linear)"/>
<path d="M4.2025 25.5415L7.51922 29.2517C7.51922 29.2517 8.75467 29.0616 8.96755 28.0638C8.96755 28.0638 12.8906 28.4838 11.9954 29.8903C11.1001 31.2968 7.51732 31.81 7.51732 31.81L0.864868 25.5377L4.2025 25.5415Z" fill="#FFB296"/>
<path opacity="0.1" d="M15.8272 11.2235C15.9526 9.893 16.0914 8.20898 16.0914 8.20898H12.3755C12.5639 9.02055 12.6778 9.84762 12.7157 10.6799C13.1656 10.9848 13.675 11.191 14.2103 11.2847C14.7456 11.3784 15.2948 11.3575 15.8215 11.2235H15.8272Z" fill="black"/>
<path d="M14.8749 11.1495C16.9943 11.1495 18.7124 9.4314 18.7124 7.312C18.7124 5.1926 16.9943 3.47449 14.8749 3.47449C12.7555 3.47449 11.0374 5.1926 11.0374 7.312C11.0374 9.4314 12.7555 11.1495 14.8749 11.1495Z" fill="#FFB296"/>
<path opacity="0.1" d="M1.06058 26.3722C1.06058 26.3722 3.06202 27.7312 5.00264 26.0205L3.48208 24.8307H0.931335L1.06058 26.3722Z" fill="black"/>
<path d="M0.931366 26.245C0.931366 26.245 2.9347 27.6021 4.87531 25.901L3.35475 24.7112H0.804016L0.931366 26.245Z" fill="url(#paint5_linear)"/>
<path opacity="0.1" d="M19.3529 19.4651C19.499 20.6995 19.4535 21.9491 19.218 23.1695C18.8378 25.3439 18.8739 28.1589 19.4289 28.6702" fill="black"/>
<path opacity="0.1" d="M9.9046 5.65286C9.9046 5.65286 11.045 6.98335 14.0861 6.47967C15.9172 6.18183 17.7883 6.23797 19.5982 6.64503L18.8379 4.49724L16.7471 2.84363H13.706L11.045 4.49724L9.9046 5.65286Z" fill="black"/>
<path d="M9.9046 5.46255C9.9046 5.46255 11.045 6.79304 14.0861 6.28936C15.9172 5.99153 17.7883 6.04766 19.5982 6.45472L18.8379 4.30693L16.7471 2.65332H13.706L11.045 4.30693L9.9046 5.46255Z" fill="#632652"/>
<defs>
<linearGradient id="paint0_linear" x1="12424.9" y1="43186" x2="12424.9" y2="14716.3" gradientUnits="userSpaceOnUse">
<stop stop-color="#808080" stop-opacity="0.25"/>
<stop offset="0.54" stop-color="#808080" stop-opacity="0.12"/>
<stop offset="1" stop-color="#808080" stop-opacity="0.1"/>
</linearGradient>
<linearGradient id="paint1_linear" x1="19.9935" y1="15.3083" x2="19.9935" y2="29.8103" gradientUnits="userSpaceOnUse">
<stop stop-color="#4CD5A7"/>
<stop offset="1" stop-color="#56D577"/>
</linearGradient>
<linearGradient id="paint2_linear" x1="13.1978" y1="59.2347" x2="13.1978" y2="67.0937" gradientUnits="userSpaceOnUse">
<stop stop-color="#4DD5A6"/>
<stop offset="1" stop-color="#55D57D"/>
</linearGradient>
<linearGradient id="paint3_linear" x1="16.0913" y1="64.1017" x2="16.0913" y2="72.7945" gradientUnits="userSpaceOnUse">
<stop stop-color="#4DD5A6"/>
<stop offset="1" stop-color="#55D57D"/>
</linearGradient>
<linearGradient id="paint4_linear" x1="10.5417" y1="12.6549" x2="10.5417" y2="48.0453" gradientUnits="userSpaceOnUse">
<stop stop-color="#4CD5A7"/>
<stop offset="1" stop-color="#56D577"/>
</linearGradient>
<linearGradient id="paint5_linear" x1="2.83966" y1="24.7112" x2="2.83966" y2="26.7579" gradientUnits="userSpaceOnUse">
<stop stop-color="#4CD5A7"/>
<stop offset="1" stop-color="#56D577"/>
</linearGradient>
</defs>
</svg>
